<svg width="622" height="311" viewBox="0 0 622 311" fill="none" xmlns="http://www.w3.org/2000/svg">
<g clip-path="url(#clip0_1_2)">
<path d="M560.005 0H62.2187C45.7187 0 29.8907 6.55733 18.224 18.224C6.55213 29.8959 0 45.724 0 62.224V248.891C0 265.391 6.55213 281.219 18.224 292.891C29.8907 304.557 45.7187 311.115 62.2187 311.115H560.005C576.505 311.115 592.333 304.557 604 292.891C615.672 281.219 622.224 265.391 622.224 248.891V62.224C622.224 45.724 615.672 29.896 604 18.224C592.333 6.55733 576.505 0 560.005 0ZM261.339 186.667H192.891V255.115H130.672V186.667H62.224V124.448H130.672V56H192.891V124.448H261.339V186.667ZM404.445 186.667C396.195 186.667 388.279 183.391 382.445 177.557C376.612 171.724 373.336 163.808 373.336 155.557C373.336 147.307 376.612 139.391 382.445 133.557C388.279 127.724 396.195 124.448 404.445 124.448C412.696 124.448 420.612 127.724 426.445 133.557C432.279 139.391 435.555 147.307 435.555 155.557C435.555 163.808 432.279 171.724 426.445 177.557C420.612 183.391 412.696 186.667 404.445 186.667ZM472.888 255.115C464.638 255.115 456.727 251.833 450.893 246C445.055 240.167 441.779 232.255 441.779 224C441.779 215.75 445.055 207.839 450.893 202.005C456.727 196.167 464.639 192.891 472.888 192.891C481.143 192.891 489.055 196.167 494.888 202.005C500.721 207.839 504.003 215.751 504.003 224C504.003 232.255 500.721 240.167 494.888 246C489.055 251.833 481.143 255.115 472.888 255.115ZM472.888 118.221C464.638 118.221 456.727 114.945 450.893 109.107C445.055 103.273 441.779 95.3615 441.779 87.1121C441.779 78.8569 445.055 70.9455 450.893 65.1121C456.727 59.2788 464.639 55.9976 472.888 55.9976C481.143 55.9976 489.055 59.2788 494.888 65.1121C500.721 70.9455 504.003 78.8575 504.003 87.1121C504.003 95.3621 500.721 103.273 494.888 109.107C489.055 114.945 481.143 118.221 472.888 118.221ZM541.336 186.664C533.081 186.664 525.169 183.388 519.336 177.555C513.503 171.721 510.221 163.805 510.221 155.555C510.221 147.304 513.503 139.388 519.336 133.555C525.169 127.721 533.081 124.445 541.336 124.445C549.586 124.445 557.497 127.721 563.331 133.555C569.169 139.388 572.445 147.304 572.445 155.555C572.445 163.805 569.169 171.721 563.331 177.555C557.497 183.388 549.585 186.664 541.336 186.664Z" fill="black"/>
</g>
<defs>
<clipPath id="clip0_1_2">
<rect width="622" height="311" fill="white"/>
</clipPath>
</defs>
</svg>
